<?xml version="1.0" standalone="no"?>
<!DOCTYPE svg PUBLIC "-//W3C//DTD SVG 20010904//EN"
 "http://www.w3.org/TR/2001/REC-SVG-20010904/DTD/svg10.dtd">
<svg version="1.0" xmlns="http://www.w3.org/2000/svg"
 width="256px" height="256px" viewBox="0 0 512.000000 512.000000"
 preserveAspectRatio="xMidYMid meet">

<g transform="translate(0.000000,512.000000) scale(0.100000,-0.100000)"
fill="#038970" stroke="none">
<path d="M712 4836 c-207 -51 -389 -237 -431 -444 -8 -37 -11 -470 -11 -1410
0 -1494 -4 -1407 62 -1542 48 -99 162 -209 269 -259 109 -51 169 -61 361 -61
l158 0 0 -158 c0 -192 10 -252 61 -361 50 -107 160 -221 259 -269 135 -66 48
-62 1542 -62 940 0 1373 3 1410 11 97 20 211 83 286 158 76 76 142 194 161
289 8 36 11 476 11 1410 0 1494 3 1407 -62 1542 -44 91 -168 214 -262 259
-101 48 -177 61 -363 61 l-163 0 0 158 c0 192 -10 252 -61 361 -50 107 -160
221 -259 269 -135 66 -47 62 -1550 61 -1072 -1 -1376 -3 -1418 -13z m2814
-330 c27 -13 66 -42 87 -66 57 -66 67 -111 67 -287 l0 -153 -1018 0 c-982 0
-1022 -1 -1096 -20 -110 -28 -190 -74 -271 -155 -81 -81 -127 -161 -155 -271
-19 -74 -20 -114 -20 -1096 l0 -1018 -153 0 c-176 0 -221 10 -287 67 -24 21
-53 60 -66 87 l-24 51 0 1336 c0 984 3 1345 12 1370 24 73 88 138 162 166 23
8 371 12 1371 12 l1340 1 51 -24z m827 -842 c63 -21 130 -82 156 -143 l21 -50
-2 -1348 c-3 -1280 -4 -1350 -21 -1384 -23 -47 -79 -103 -126 -126 -34 -17
-104 -18 -1384 -21 l-1348 -2 -50 21 c-29 13 -66 40 -89 66 -75 85 -70 -16
-70 1453 0 1496 -6 1386 81 1471 33 32 66 54 97 63 40 12 246 15 1368 15 1177
1 1325 -1 1367 -15z"/>
</g>
</svg>
